<svg width="1278" height="835" aria-label="A chart." style="overflow: hidden;"><defs id="defs"><clipPath id="_ABSTRACT_RENDERER_ID_1"><rect x="244" y="160" width="790" height="516"></rect></clipPath></defs><rect x="0" y="0" width="1278" height="835" stroke="none" stroke-width="0" fill="#ffffff"></rect><g><text text-anchor="start" x="244" y="131.6" font-family="Arial" font-size="16" font-weight="bold" stroke="none" stroke-width="0" fill="#000000">Shenzhen time series at lat: 22.5610 lon: 114.1092</text><rect x="244" y="118" width="790" height="16" stroke="none" stroke-width="0" fill-opacity="0" fill="#ffffff"></rect></g><g><rect x="1050" y="160" width="212" height="172" stroke="none" stroke-width="0" fill-opacity="0" fill="#ffffff"></rect><g column-id="B1_blue"><rect x="1050" y="160" width="212" height="16" stroke="none" stroke-width="0" fill-opacity="0" fill="#ffffff"></rect><g><text text-anchor="start" x="1088" y="173.6" font-family="Arial" font-size="16" stroke="none" stroke-width="0" fill="#222222">B1_blue</text></g><path d="M1050,168L1082,168" stroke="#0000ff" stroke-width="2" fill-opacity="1" fill="none"></path><circle cx="1066" cy="168" r="2" stroke="none" stroke-width="0" fill="#0000ff"></circle></g><g column-id="B2_green"><rect x="1050" y="186" width="212" height="16" stroke="none" stroke-width="0" fill-opacity="0" fill="#ffffff"></rect><g><text text-anchor="start" x="1088" y="199.6" font-family="Arial" font-size="16" stroke="none" stroke-width="0" fill="#222222">B2_green</text></g><path d="M1050,194L1082,194" stroke="#008000" stroke-width="2" fill-opacity="1" fill="none"></path><circle cx="1066" cy="194" r="2" stroke="none" stroke-width="0" fill="#008000"></circle></g><g column-id="B3_red"><rect x="1050" y="212" width="212" height="16" stroke="none" stroke-width="0" fill-opacity="0" fill="#ffffff"></rect><g><text text-anchor="start" x="1088" y="225.6" font-family="Arial" font-size="16" stroke="none" stroke-width="0" fill="#222222">B3_red</text></g><path d="M1050,220L1082,220" stroke="#ff0000" stroke-width="2" fill-opacity="1" fill="none"></path><circle cx="1066" cy="220" r="2" stroke="none" stroke-width="0" fill="#ff0000"></circle></g><g column-id="B4_nir"><rect x="1050" y="238" width="212" height="16" stroke="none" stroke-width="0" fill-opacity="0" fill="#ffffff"></rect><g><text text-anchor="start" x="1088" y="251.6" font-family="Arial" font-size="16" stroke="none" stroke-width="0" fill="#222222">B4_nir</text></g><path d="M1050,246L1082,246" stroke="#000000" stroke-width="2" fill-opacity="1" fill="none"></path><circle cx="1066" cy="246" r="2" stroke="none" stroke-width="0" fill="#000000"></circle></g><g column-id="B5_swir"><rect x="1050" y="264" width="212" height="16" stroke="none" stroke-width="0" fill-opacity="0" fill="#ffffff"></rect><g><text text-anchor="start" x="1088" y="277.6" font-family="Arial" font-size="16" stroke="none" stroke-width="0" fill="#222222">B5_swir</text></g><path d="M1050,272L1082,272" stroke="#800080" stroke-width="2" fill-opacity="1" fill="none"></path><circle cx="1066" cy="272" r="2" stroke="none" stroke-width="0" fill="#800080"></circle></g><g column-id="B6_NDVI"><rect x="1050" y="290" width="212" height="16" stroke="none" stroke-width="0" fill-opacity="0" fill="#ffffff"></rect><g><text text-anchor="start" x="1088" y="303.6" font-family="Arial" font-size="16" stroke="none" stroke-width="0" fill="#222222">B6_NDVI</text></g><path d="M1050,298L1082,298" stroke="#ffa500" stroke-width="2" fill-opacity="1" fill="none"></path><circle cx="1066" cy="298" r="2" stroke="none" stroke-width="0" fill="#ffa500"></circle></g><g column-id="B7_NDWI"><rect x="1050" y="316" width="212" height="16" stroke="none" stroke-width="0" fill-opacity="0" fill="#ffffff"></rect><g><text text-anchor="start" x="1088" y="329.6" font-family="Arial" font-size="16" stroke="none" stroke-width="0" fill="#222222">B7_NDWI</text></g><path d="M1050,324L1082,324" stroke="#00ffff" stroke-width="2" fill-opacity="1" fill="none"></path><circle cx="1066" cy="324" r="2" stroke="none" stroke-width="0" fill="#00ffff"></circle></g></g><g><rect x="244" y="160" width="790" height="516" stroke="none" stroke-width="0" fill-opacity="0" fill="#ffffff"></rect><g clip-path="url(https://plewis.users.earthengine.app/view/shenzhen#_ABSTRACT_RENDERER_ID_1)"><g><rect x="244" y="675" width="790" height="1" stroke="none" stroke-width="0" fill="#cccccc"></rect><rect x="244" y="546" width="790" height="1" stroke="none" stroke-width="0" fill="#cccccc"></rect><rect x="244" y="418" width="790" height="1" stroke="none" stroke-width="0" fill="#cccccc"></rect><rect x="244" y="289" width="790" height="1" stroke="none" stroke-width="0" fill="#cccccc"></rect><rect x="244" y="160" width="790" height="1" stroke="none" stroke-width="0" fill="#cccccc"></rect></g><g><rect x="244" y="546" width="790" height="1" stroke="none" stroke-width="0" fill="#333333"></rect></g><g><path d="M256.45454545454544,457.99833381424344L280.3636363636364,464.6933320338527L304.27272727272725,465.2083343565464L328.1818181818182,459.8437497441967L352.0909090909091,462.2041679968437L376,449.3291674852371L399.9090909090909,441.3037492632866L423.8181818181818,456.19583527743816L447.72727272727275,468.7275030389428L471.6363636363636,448.94291734198725L495.54545454545456,464.22124710430705L519.4545454545455,473.4054157560071L543.3636363636364,472.41833489884937L567.2727272727273,460.14416510115063L591.1818181818182,455.5091697772344L615.0909090909091,465.2083343565464L639,465.2083343565464L662.909090909091,465.980834643046L686.8181818181818,459.80083235104877L710.7272727272727,451.0458312357465L734.6363636363637,445.4666660527388L758.5454545454546,425.5962519645691L782.4545454545455,422.4633270303408L806.3636363636364,426.92667196691036L830.2727272727273,438.9004136174917L854.1818181818182,436.7116713325182L878.0909090909091,436.7116713325182L902,450.3591657355428L925.909090909091,447.95583648482955L949.8181818181819,452.6337492018938L973.7272727272727,456.28166366865236L997.6363636363636,463.49166421095526L1021.5454545454546,451.6466683447361" stroke="#0000ff" stroke-width="2" fill-opacity="1" fill="none"></path><path d="M256.45454545454544,432.93500468631584L280.3636363636364,436.1966626147429L304.27272727272725,442.3766649067402L328.1818181818182,434.22250090042746L352.0909090909091,433.8791617552439L376,419.20166910191375L399.9090909090909,421.17583081622917L423.8181818181818,435.7675014734268L447.72727272727275,449.7583350216349L471.6363636363636,429.63042296965915L495.54545454545456,442.20500172923005L519.4545454545455,457.52624888469774L543.3636363636364,454.5649999181429L567.2727272727273,439.5441681196292L591.1818181818182,440.48833158363897L615.0909090909091,448.7283303762475L639,445.7241640165448L662.909090909091,444.78000055253506L686.8181818181818,442.54833447933197L710.7272727272727,423.49333167572814L734.6363636363637,408.0433387358983L758.5454545454546,379.41791713734466L782.4545454545455,395.59749936560786L806.3636363636364,416.2833375285069L830.2727272727273,426.0683368941148L854.1818181818182,429.63042296965915L878.0909090909091,429.63042296965915L902,444.78000055253506L925.909090909091,433.9649965415398L949.8181818181819,437.183756262064L973.7272727272727,450.70249848564464L997.6363636363636,452.76250138133764L1021.5454545454546,440.27375101298094" stroke="#008000" stroke-width="2" fill-opacity="1" fill="none"></path><path d="M256.45454545454544,423.57916646202403L280.3636363636364,418.3433340291182L304.27272727272725,436.54000175992644L328.1818181818182,425.72499774893123L352.0909090909091,428.0424986084302L376,408.1291607320308L399.9090909090909,413.2362473805745L423.8181818181818,424.95249746243155L447.72727272727275,442.9775020157297L471.6363636363636,428.17124439279235L495.54545454545456,437.183756262064L519.4545454545455,448.29916923493147L543.3636363636364,452.76250138133764L567.2727272727273,436.36833218733466L591.1818181818182,437.183756262064L615.0909090909091,443.70708490908146L639,444.6083309799433L662.909090909091,440.0162530491749L686.8181818181818,442.8487498362859L710.7272727272727,409.5025045226017L734.6363636363637,385.297504072388L758.5454545454546,344.6983280330896L782.4545454545455,394.31000315149623L806.3636363636364,414.4808325966199L830.2727272727273,427.7420832514763L854.1818181818182,427.9566638221343L878.0909090909091,427.9566638221343L902,441.0033339063326L925.909090909091,431.21833454072475L949.8181818181819,431.9908348272244L973.7272727272727,451.6466683447361L997.6363636363636,447.01166662573814L1021.5454545454546,440.3166684061289" stroke="#ff0000" stroke-width="2" fill-opacity="1" fill="none"></path><path d="M256.45454545454544,380.49083278079826L280.3636363636364,371.22082934280235L304.27272727272725,386.32749592761195L328.1818181818182,372.67999512950576L352.0909090909091,381.692494208614L376,372.25083398818964L399.9090909090909,387.95833128690714L423.8181818181818,397.4858390837907L447.72727272727275,418.0858296702305L471.6363636363636,402.6358367304007L495.54545454545456,413.9658366690079L519.4545454545455,414.8670827398697L543.3636363636364,414.90999373793596L567.2727272727273,411.99166216452915L591.1818181818182,396.58458022276557L615.0909090909091,415.2533328831195L639,417.05583781500656L662.909090909091,406.49833816289896L686.8181818181818,398.42999615271884L710.7272727272727,346.8441721101602L734.6363636363637,330.5358440975348L758.5454545454546,312.59666793545085L782.4545454545455,339.71999995907146L806.3636363636364,374.8258392065763L830.2727272727273,389.2029165029525L854.1818181818182,395.8979147225618L878.0909090909091,395.8979147225618L902,376.8858357071876L925.909090909091,376.19917020698387L949.8181818181819,362.63750419517356L973.7272727272727,381.60667221248144L997.6363636363636,390.2758321464061L1021.5454545454546,371.30666412909824" stroke="#000000" stroke-width="2" fill-opacity="1" fill="none"></path><path d="M256.45454545454544,353.45333554347354L280.3636363636364,351.5649958252906L304.27272727272725,372.33666877448553L328.1818181818182,364.26833955446875L352.0909090909091,380.06167163948214L376,358.68916797637934L399.9090909090909,371.8216728468736L423.8181818181818,375.7699962755044L447.72727272727275,391.8208327194055L471.6363636363636,392.8079135765632L495.54545454545456,397.7004196544488L519.4545454545455,399.1595854411522L543.3636363636364,392.5074982196092L567.2727272727273,403.32250223060447L591.1818181818182,379.0316669940948L615.0909090909091,397.35708050926524L639,412.5925056686004L662.909090909091,393.408744290471L686.8181818181818,388.9025011459986L710.7272727272727,329.076665520668L734.6363636363637,292.3399909138679L758.5454545454546,277.4908414781093L782.4545454545455,307.7899966438611L806.3636363636364,359.6333378354708L830.2727272727273,372.5083383470773L854.1818181818182,368.90332848330337L878.0909090909091,368.90332848330337L902,345.64249789218104L925.909090909091,360.66332969069475L949.8181818181819,331.4799883762995L973.7272727272727,357.05833261708415L997.6363636363636,364.26833955446875L1021.5454545454546,343.6683361778656" stroke="#800080" stroke-width="2" fill-opacity="1" fill="none"></path><path d="M256.45454545454544,418.96727656821406L280.3636363636364,413.6731849412123L304.27272727272725,387.49691335360205L328.1818181818182,392.45971416930354L352.0909090909091,406.5503685474395L376,448.3993034238616L399.9090909090909,472.52325900395715L423.8181818181818,459.7751241226991L447.72727272727275,454.8309969455004L471.6363636363636,463.31455881893635L495.54545454545456,464.51902129252755L519.4545454545455,422.16612200438976L543.3636363636364,402.87884983420366L567.2727272727273,461.3975243692597L591.1818181818182,412.58223516742385L615.0909090909091,442.61916640400887L639,444.74148297558224L662.909090909091,430.2672324130932L686.8181818181818,395.58868694305414L710.7272727272727,387.23286043107504L734.6363636363637,422.2916702479124L758.5454545454546,483.5826126908263L782.4545454545455,416.4013907363017L806.3636363636364,434.85666278004646L830.2727272727273,427.1374410688877L854.1818181818182,444.70081665118533L878.0909090909091,444.70081665118533L902,347.0692150344451L925.909090909091,381.6759948978821L949.8181818181819,347.5732753723859L973.7272727272727,315.74737119674677L997.6363636363636,356.68020422756666L1021.5454545454546,336.609931046764" stroke="#ffa500" stroke-width="2" fill-opacity="1" fill="none"></path><path d="M256.45454545454544,611.2940437520543L280.3636363636364,592.2601479155322L304.27272727272725,582.6147339977324L328.1818181818182,566.9995592956742L352.0909090909091,550.9694912792183L376,578.8562197908759L399.9090909090909,588.25377313296L423.8181818181818,604.9537871082624L447.72727272727275,626.2445552324256L471.6363636363636,575.0521342319747L495.54545454545456,596.2868270824353L519.4545454545455,594.9917079309622L543.3636363636364,613.9642205759883L567.2727272727273,573.4984315515807L591.1818181818182,594.145481945326L615.0909090909091,601.4367863585552L639,561.2696268645426L662.909090909091,585.0180408656597L686.8181818181818,573.460120216012L710.7272727272727,583.2710676255325L734.6363636363637,616.412289818128L758.5454545454546,606.6064936468998L782.4545454545455,608.2011136586467L806.3636363636364,583.0696257501841L830.2727272727273,589.9386789078513L854.1818181818182,617.2411435643832L878.0909090909091,617.2411435643832L902,619.0390632227063L925.909090909091,584.1406932150325L949.8181818181819,613.7121776168545L973.7272727272727,606.1315501158437L997.6363636363636,612.6084440747896L1021.5454545454546,609.4219603314996" stroke="#00ffff" stroke-width="2" fill-opacity="1" fill="none"></path></g></g><g><circle cx="256.45454545454544" cy="457.99833381424344" r="2" stroke="none" stroke-width="0" fill="#0000ff"></circle><circle cx="280.3636363636364" cy="464.6933320338527" r="2" stroke="none" stroke-width="0" fill="#0000ff"></circle><circle cx="304.27272727272725" cy="465.2083343565464" r="2" stroke="none" stroke-width="0" fill="#0000ff"></circle><circle cx="328.1818181818182" cy="459.8437497441967" r="2" stroke="none" stroke-width="0" fill="#0000ff"></circle><circle cx="352.0909090909091" cy="462.2041679968437" r="2" stroke="none" stroke-width="0" fill="#0000ff"></circle><circle cx="376" cy="449.3291674852371" r="2" stroke="none" stroke-width="0" fill="#0000ff"></circle><circle cx="399.9090909090909" cy="441.3037492632866" r="2" stroke="none" stroke-width="0" fill="#0000ff"></circle><circle cx="423.8181818181818" cy="456.19583527743816" r="2" stroke="none" stroke-width="0" fill="#0000ff"></circle><circle cx="447.72727272727275" cy="468.7275030389428" r="2" stroke="none" stroke-width="0" fill="#0000ff"></circle><circle cx="471.6363636363636" cy="448.94291734198725" r="2" stroke="none" stroke-width="0" fill="#0000ff"></circle><circle cx="495.54545454545456" cy="464.22124710430705" r="2" stroke="none" stroke-width="0" fill="#0000ff"></circle><circle cx="519.4545454545455" cy="473.4054157560071" r="2" stroke="none" stroke-width="0" fill="#0000ff"></circle><circle cx="543.3636363636364" cy="472.41833489884937" r="2" stroke="none" stroke-width="0" fill="#0000ff"></circle><circle cx="567.2727272727273" cy="460.14416510115063" r="2" stroke="none" stroke-width="0" fill="#0000ff"></circle><circle cx="591.1818181818182" cy="455.5091697772344" r="2" stroke="none" stroke-width="0" fill="#0000ff"></circle><circle cx="615.0909090909091" cy="465.2083343565464" r="2" stroke="none" stroke-width="0" fill="#0000ff"></circle><circle cx="639" cy="465.2083343565464" r="2" stroke="none" stroke-width="0" fill="#0000ff"></circle><circle cx="662.909090909091" cy="465.980834643046" r="2" stroke="none" stroke-width="0" fill="#0000ff"></circle><circle cx="686.8181818181818" cy="459.80083235104877" r="2" stroke="none" stroke-width="0" fill="#0000ff"></circle><circle cx="710.7272727272727" cy="451.0458312357465" r="2" stroke="none" stroke-width="0" fill="#0000ff"></circle><circle cx="734.6363636363637" cy="445.4666660527388" r="2" stroke="none" stroke-width="0" fill="#0000ff"></circle><circle cx="758.5454545454546" cy="425.5962519645691" r="2" stroke="none" stroke-width="0" fill="#0000ff"></circle><circle cx="782.4545454545455" cy="422.4633270303408" r="2" stroke="none" stroke-width="0" fill="#0000ff"></circle><circle cx="806.3636363636364" cy="426.92667196691036" r="2" stroke="none" stroke-width="0" fill="#0000ff"></circle><circle cx="830.2727272727273" cy="438.9004136174917" r="2" stroke="none" stroke-width="0" fill="#0000ff"></circle><circle cx="854.1818181818182" cy="436.7116713325182" r="2" stroke="none" stroke-width="0" fill="#0000ff"></circle><circle cx="878.0909090909091" cy="436.7116713325182" r="2" stroke="none" stroke-width="0" fill="#0000ff"></circle><circle cx="902" cy="450.3591657355428" r="2" stroke="none" stroke-width="0" fill="#0000ff"></circle><circle cx="925.909090909091" cy="447.95583648482955" r="2" stroke="none" stroke-width="0" fill="#0000ff"></circle><circle cx="949.8181818181819" cy="452.6337492018938" r="2" stroke="none" stroke-width="0" fill="#0000ff"></circle><circle cx="973.7272727272727" cy="456.28166366865236" r="2" stroke="none" stroke-width="0" fill="#0000ff"></circle><circle cx="997.6363636363636" cy="463.49166421095526" r="2" stroke="none" stroke-width="0" fill="#0000ff"></circle><circle cx="1021.5454545454546" cy="451.6466683447361" r="2" stroke="none" stroke-width="0" fill="#0000ff"></circle><circle cx="256.45454545454544" cy="432.93500468631584" r="2" stroke="none" stroke-width="0" fill="#008000"></circle><circle cx="280.3636363636364" cy="436.1966626147429" r="2" stroke="none" stroke-width="0" fill="#008000"></circle><circle cx="304.27272727272725" cy="442.3766649067402" r="2" stroke="none" stroke-width="0" fill="#008000"></circle><circle cx="328.1818181818182" cy="434.22250090042746" r="2" stroke="none" stroke-width="0" fill="#008000"></circle><circle cx="352.0909090909091" cy="433.8791617552439" r="2" stroke="none" stroke-width="0" fill="#008000"></circle><circle cx="376" cy="419.20166910191375" r="2" stroke="none" stroke-width="0" fill="#008000"></circle><circle cx="399.9090909090909" cy="421.17583081622917" r="2" stroke="none" stroke-width="0" fill="#008000"></circle><circle cx="423.8181818181818" cy="435.7675014734268" r="2" stroke="none" stroke-width="0" fill="#008000"></circle><circle cx="447.72727272727275" cy="449.7583350216349" r="2" stroke="none" stroke-width="0" fill="#008000"></circle><circle cx="471.6363636363636" cy="429.63042296965915" r="2" stroke="none" stroke-width="0" fill="#008000"></circle><circle cx="495.54545454545456" cy="442.20500172923005" r="2" stroke="none" stroke-width="0" fill="#008000"></circle><circle cx="519.4545454545455" cy="457.52624888469774" r="2" stroke="none" stroke-width="0" fill="#008000"></circle><circle cx="543.3636363636364" cy="454.5649999181429" r="2" stroke="none" stroke-width="0" fill="#008000"></circle><circle cx="567.2727272727273" cy="439.5441681196292" r="2" stroke="none" stroke-width="0" fill="#008000"></circle><circle cx="591.1818181818182" cy="440.48833158363897" r="2" stroke="none" stroke-width="0" fill="#008000"></circle><circle cx="615.0909090909091" cy="448.7283303762475" r="2" stroke="none" stroke-width="0" fill="#008000"></circle><circle cx="639" cy="445.7241640165448" r="2" stroke="none" stroke-width="0" fill="#008000"></circle><circle cx="662.909090909091" cy="444.78000055253506" r="2" stroke="none" stroke-width="0" fill="#008000"></circle><circle cx="686.8181818181818" cy="442.54833447933197" r="2" stroke="none" stroke-width="0" fill="#008000"></circle><circle cx="710.7272727272727" cy="423.49333167572814" r="2" stroke="none" stroke-width="0" fill="#008000"></circle><circle cx="734.6363636363637" cy="408.0433387358983" r="2" stroke="none" stroke-width="0" fill="#008000"></circle><circle cx="758.5454545454546" cy="379.41791713734466" r="2" stroke="none" stroke-width="0" fill="#008000"></circle><circle cx="782.4545454545455" cy="395.59749936560786" r="2" stroke="none" stroke-width="0" fill="#008000"></circle><circle cx="806.3636363636364" cy="416.2833375285069" r="2" stroke="none" stroke-width="0" fill="#008000"></circle><circle cx="830.2727272727273" cy="426.0683368941148" r="2" stroke="none" stroke-width="0" fill="#008000"></circle><circle cx="854.1818181818182" cy="429.63042296965915" r="2" stroke="none" stroke-width="0" fill="#008000"></circle><circle cx="878.0909090909091" cy="429.63042296965915" r="2" stroke="none" stroke-width="0" fill="#008000"></circle><circle cx="902" cy="444.78000055253506" r="2" stroke="none" stroke-width="0" fill="#008000"></circle><circle cx="925.909090909091" cy="433.9649965415398" r="2" stroke="none" stroke-width="0" fill="#008000"></circle><circle cx="949.8181818181819" cy="437.183756262064" r="2" stroke="none" stroke-width="0" fill="#008000"></circle><circle cx="973.7272727272727" cy="450.70249848564464" r="2" stroke="none" stroke-width="0" fill="#008000"></circle><circle cx="997.6363636363636" cy="452.76250138133764" r="2" stroke="none" stroke-width="0" fill="#008000"></circle><circle cx="1021.5454545454546" cy="440.27375101298094" r="2" stroke="none" stroke-width="0" fill="#008000"></circle><circle cx="256.45454545454544" cy="423.57916646202403" r="2" stroke="none" stroke-width="0" fill="#ff0000"></circle><circle cx="280.3636363636364" cy="418.3433340291182" r="2" stroke="none" stroke-width="0" fill="#ff0000"></circle><circle cx="304.27272727272725" cy="436.54000175992644" r="2" stroke="none" stroke-width="0" fill="#ff0000"></circle><circle cx="328.1818181818182" cy="425.72499774893123" r="2" stroke="none" stroke-width="0" fill="#ff0000"></circle><circle cx="352.0909090909091" cy="428.0424986084302" r="2" stroke="none" stroke-width="0" fill="#ff0000"></circle><circle cx="376" cy="408.1291607320308" r="2" stroke="none" stroke-width="0" fill="#ff0000"></circle><circle cx="399.9090909090909" cy="413.2362473805745" r="2" stroke="none" stroke-width="0" fill="#ff0000"></circle><circle cx="423.8181818181818" cy="424.95249746243155" r="2" stroke="none" stroke-width="0" fill="#ff0000"></circle><circle cx="447.72727272727275" cy="442.9775020157297" r="2" stroke="none" stroke-width="0" fill="#ff0000"></circle><circle cx="471.6363636363636" cy="428.17124439279235" r="2" stroke="none" stroke-width="0" fill="#ff0000"></circle><circle cx="495.54545454545456" cy="437.183756262064" r="2" stroke="none" stroke-width="0" fill="#ff0000"></circle><circle cx="519.4545454545455" cy="448.29916923493147" r="2" stroke="none" stroke-width="0" fill="#ff0000"></circle><circle cx="543.3636363636364" cy="452.76250138133764" r="2" stroke="none" stroke-width="0" fill="#ff0000"></circle><circle cx="567.2727272727273" cy="436.36833218733466" r="2" stroke="none" stroke-width="0" fill="#ff0000"></circle><circle cx="591.1818181818182" cy="437.183756262064" r="2" stroke="none" stroke-width="0" fill="#ff0000"></circle><circle cx="615.0909090909091" cy="443.70708490908146" r="2" stroke="none" stroke-width="0" fill="#ff0000"></circle><circle cx="639" cy="444.6083309799433" r="2" stroke="none" stroke-width="0" fill="#ff0000"></circle><circle cx="662.909090909091" cy="440.0162530491749" r="2" stroke="none" stroke-width="0" fill="#ff0000"></circle><circle cx="686.8181818181818" cy="442.8487498362859" r="2" stroke="none" stroke-width="0" fill="#ff0000"></circle><circle cx="710.7272727272727" cy="409.5025045226017" r="2" stroke="none" stroke-width="0" fill="#ff0000"></circle><circle cx="734.6363636363637" cy="385.297504072388" r="2" stroke="none" stroke-width="0" fill="#ff0000"></circle><circle cx="758.5454545454546" cy="344.6983280330896" r="2" stroke="none" stroke-width="0" fill="#ff0000"></circle><circle cx="782.4545454545455" cy="394.31000315149623" r="2" stroke="none" stroke-width="0" fill="#ff0000"></circle><circle cx="806.3636363636364" cy="414.4808325966199" r="2" stroke="none" stroke-width="0" fill="#ff0000"></circle><circle cx="830.2727272727273" cy="427.7420832514763" r="2" stroke="none" stroke-width="0" fill="#ff0000"></circle><circle cx="854.1818181818182" cy="427.9566638221343" r="2" stroke="none" stroke-width="0" fill="#ff0000"></circle><circle cx="878.0909090909091" cy="427.9566638221343" r="2" stroke="none" stroke-width="0" fill="#ff0000"></circle><circle cx="902" cy="441.0033339063326" r="2" stroke="none" stroke-width="0" fill="#ff0000"></circle><circle cx="925.909090909091" cy="431.21833454072475" r="2" stroke="none" stroke-width="0" fill="#ff0000"></circle><circle cx="949.8181818181819" cy="431.9908348272244" r="2" stroke="none" stroke-width="0" fill="#ff0000"></circle><circle cx="973.7272727272727" cy="451.6466683447361" r="2" stroke="none" stroke-width="0" fill="#ff0000"></circle><circle cx="997.6363636363636" cy="447.01166662573814" r="2" stroke="none" stroke-width="0" fill="#ff0000"></circle><circle cx="1021.5454545454546" cy="440.3166684061289" r="2" stroke="none" stroke-width="0" fill="#ff0000"></circle><circle cx="256.45454545454544" cy="380.49083278079826" r="2" stroke="none" stroke-width="0" fill="#000000"></circle><circle cx="280.3636363636364" cy="371.22082934280235" r="2" stroke="none" stroke-width="0" fill="#000000"></circle><circle cx="304.27272727272725" cy="386.32749592761195" r="2" stroke="none" stroke-width="0" fill="#000000"></circle><circle cx="328.1818181818182" cy="372.67999512950576" r="2" stroke="none" stroke-width="0" fill="#000000"></circle><circle cx="352.0909090909091" cy="381.692494208614" r="2" stroke="none" stroke-width="0" fill="#000000"></circle><circle cx="376" cy="372.25083398818964" r="2" stroke="none" stroke-width="0" fill="#000000"></circle><circle cx="399.9090909090909" cy="387.95833128690714" r="2" stroke="none" stroke-width="0" fill="#000000"></circle><circle cx="423.8181818181818" cy="397.4858390837907" r="2" stroke="none" stroke-width="0" fill="#000000"></circle><circle cx="447.72727272727275" cy="418.0858296702305" r="2" stroke="none" stroke-width="0" fill="#000000"></circle><circle cx="471.6363636363636" cy="402.6358367304007" r="2" stroke="none" stroke-width="0" fill="#000000"></circle><circle cx="495.54545454545456" cy="413.9658366690079" r="2" stroke="none" stroke-width="0" fill="#000000"></circle><circle cx="519.4545454545455" cy="414.8670827398697" r="2" stroke="none" stroke-width="0" fill="#000000"></circle><circle cx="543.3636363636364" cy="414.90999373793596" r="2" stroke="none" stroke-width="0" fill="#000000"></circle><circle cx="567.2727272727273" cy="411.99166216452915" r="2" stroke="none" stroke-width="0" fill="#000000"></circle><circle cx="591.1818181818182" cy="396.58458022276557" r="2" stroke="none" stroke-width="0" fill="#000000"></circle><circle cx="615.0909090909091" cy="415.2533328831195" r="2" stroke="none" stroke-width="0" fill="#000000"></circle><circle cx="639" cy="417.05583781500656" r="2" stroke="none" stroke-width="0" fill="#000000"></circle><circle cx="662.909090909091" cy="406.49833816289896" r="2" stroke="none" stroke-width="0" fill="#000000"></circle><circle cx="686.8181818181818" cy="398.42999615271884" r="2" stroke="none" stroke-width="0" fill="#000000"></circle><circle cx="710.7272727272727" cy="346.8441721101602" r="2" stroke="none" stroke-width="0" fill="#000000"></circle><circle cx="734.6363636363637" cy="330.5358440975348" r="2" stroke="none" stroke-width="0" fill="#000000"></circle><circle cx="758.5454545454546" cy="312.59666793545085" r="2" stroke="none" stroke-width="0" fill="#000000"></circle><circle cx="782.4545454545455" cy="339.71999995907146" r="2" stroke="none" stroke-width="0" fill="#000000"></circle><circle cx="806.3636363636364" cy="374.8258392065763" r="2" stroke="none" stroke-width="0" fill="#000000"></circle><circle cx="830.2727272727273" cy="389.2029165029525" r="2" stroke="none" stroke-width="0" fill="#000000"></circle><circle cx="854.1818181818182" cy="395.8979147225618" r="2" stroke="none" stroke-width="0" fill="#000000"></circle><circle cx="878.0909090909091" cy="395.8979147225618" r="2" stroke="none" stroke-width="0" fill="#000000"></circle><circle cx="902" cy="376.8858357071876" r="2" stroke="none" stroke-width="0" fill="#000000"></circle><circle cx="925.909090909091" cy="376.19917020698387" r="2" stroke="none" stroke-width="0" fill="#000000"></circle><circle cx="949.8181818181819" cy="362.63750419517356" r="2" stroke="none" stroke-width="0" fill="#000000"></circle><circle cx="973.7272727272727" cy="381.60667221248144" r="2" stroke="none" stroke-width="0" fill="#000000"></circle><circle cx="997.6363636363636" cy="390.2758321464061" r="2" stroke="none" stroke-width="0" fill="#000000"></circle><circle cx="1021.5454545454546" cy="371.30666412909824" r="2" stroke="none" stroke-width="0" fill="#000000"></circle><circle cx="256.45454545454544" cy="353.45333554347354" r="2" stroke="none" stroke-width="0" fill="#800080"></circle><circle cx="280.3636363636364" cy="351.5649958252906" r="2" stroke="none" stroke-width="0" fill="#800080"></circle><circle cx="304.27272727272725" cy="372.33666877448553" r="2" stroke="none" stroke-width="0" fill="#800080"></circle><circle cx="328.1818181818182" cy="364.26833955446875" r="2" stroke="none" stroke-width="0" fill="#800080"></circle><circle cx="352.0909090909091" cy="380.06167163948214" r="2" stroke="none" stroke-width="0" fill="#800080"></circle><circle cx="376" cy="358.68916797637934" r="2" stroke="none" stroke-width="0" fill="#800080"></circle><circle cx="399.9090909090909" cy="371.8216728468736" r="2" stroke="none" stroke-width="0" fill="#800080"></circle><circle cx="423.8181818181818" cy="375.7699962755044" r="2" stroke="none" stroke-width="0" fill="#800080"></circle><circle cx="447.72727272727275" cy="391.8208327194055" r="2" stroke="none" stroke-width="0" fill="#800080"></circle><circle cx="471.6363636363636" cy="392.8079135765632" r="2" stroke="none" stroke-width="0" fill="#800080"></circle><circle cx="495.54545454545456" cy="397.7004196544488" r="2" stroke="none" stroke-width="0" fill="#800080"></circle><circle cx="519.4545454545455" cy="399.1595854411522" r="2" stroke="none" stroke-width="0" fill="#800080"></circle><circle cx="543.3636363636364" cy="392.5074982196092" r="2" stroke="none" stroke-width="0" fill="#800080"></circle><circle cx="567.2727272727273" cy="403.32250223060447" r="2" stroke="none" stroke-width="0" fill="#800080"></circle><circle cx="591.1818181818182" cy="379.0316669940948" r="2" stroke="none" stroke-width="0" fill="#800080"></circle><circle cx="615.0909090909091" cy="397.35708050926524" r="2" stroke="none" stroke-width="0" fill="#800080"></circle><circle cx="639" cy="412.5925056686004" r="2" stroke="none" stroke-width="0" fill="#800080"></circle><circle cx="662.909090909091" cy="393.408744290471" r="2" stroke="none" stroke-width="0" fill="#800080"></circle><circle cx="686.8181818181818" cy="388.9025011459986" r="2" stroke="none" stroke-width="0" fill="#800080"></circle><circle cx="710.7272727272727" cy="329.076665520668" r="2" stroke="none" stroke-width="0" fill="#800080"></circle><circle cx="734.6363636363637" cy="292.3399909138679" r="2" stroke="none" stroke-width="0" fill="#800080"></circle><circle cx="758.5454545454546" cy="277.4908414781093" r="2" stroke="none" stroke-width="0" fill="#800080"></circle><circle cx="782.4545454545455" cy="307.7899966438611" r="2" stroke="none" stroke-width="0" fill="#800080"></circle><circle cx="806.3636363636364" cy="359.6333378354708" r="2" stroke="none" stroke-width="0" fill="#800080"></circle><circle cx="830.2727272727273" cy="372.5083383470773" r="2" stroke="none" stroke-width="0" fill="#800080"></circle><circle cx="854.1818181818182" cy="368.90332848330337" r="2" stroke="none" stroke-width="0" fill="#800080"></circle><circle cx="878.0909090909091" cy="368.90332848330337" r="2" stroke="none" stroke-width="0" fill="#800080"></circle><circle cx="902" cy="345.64249789218104" r="2" stroke="none" stroke-width="0" fill="#800080"></circle><circle cx="925.909090909091" cy="360.66332969069475" r="2" stroke="none" stroke-width="0" fill="#800080"></circle><circle cx="949.8181818181819" cy="331.4799883762995" r="2" stroke="none" stroke-width="0" fill="#800080"></circle><circle cx="973.7272727272727" cy="357.05833261708415" r="2" stroke="none" stroke-width="0" fill="#800080"></circle><circle cx="997.6363636363636" cy="364.26833955446875" r="2" stroke="none" stroke-width="0" fill="#800080"></circle><circle cx="1021.5454545454546" cy="343.6683361778656" r="2" stroke="none" stroke-width="0" fill="#800080"></circle><circle cx="256.45454545454544" cy="418.96727656821406" r="2" stroke="none" stroke-width="0" fill="#ffa500"></circle><circle cx="280.3636363636364" cy="413.6731849412123" r="2" stroke="none" stroke-width="0" fill="#ffa500"></circle><circle cx="304.27272727272725" cy="387.49691335360205" r="2" stroke="none" stroke-width="0" fill="#ffa500"></circle><circle cx="328.1818181818182" cy="392.45971416930354" r="2" stroke="none" stroke-width="0" fill="#ffa500"></circle><circle cx="352.0909090909091" cy="406.5503685474395" r="2" stroke="none" stroke-width="0" fill="#ffa500"></circle><circle cx="376" cy="448.3993034238616" r="2" stroke="none" stroke-width="0" fill="#ffa500"></circle><circle cx="399.9090909090909" cy="472.52325900395715" r="2" stroke="none" stroke-width="0" fill="#ffa500"></circle><circle cx="423.8181818181818" cy="459.7751241226991" r="2" stroke="none" stroke-width="0" fill="#ffa500"></circle><circle cx="447.72727272727275" cy="454.8309969455004" r="2" stroke="none" stroke-width="0" fill="#ffa500"></circle><circle cx="471.6363636363636" cy="463.31455881893635" r="2" stroke="none" stroke-width="0" fill="#ffa500"></circle><circle cx="495.54545454545456" cy="464.51902129252755" r="2" stroke="none" stroke-width="0" fill="#ffa500"></circle><circle cx="519.4545454545455" cy="422.16612200438976" r="2" stroke="none" stroke-width="0" fill="#ffa500"></circle><circle cx="543.3636363636364" cy="402.87884983420366" r="2" stroke="none" stroke-width="0" fill="#ffa500"></circle><circle cx="567.2727272727273" cy="461.3975243692597" r="2" stroke="none" stroke-width="0" fill="#ffa500"></circle><circle cx="591.1818181818182" cy="412.58223516742385" r="2" stroke="none" stroke-width="0" fill="#ffa500"></circle><circle cx="615.0909090909091" cy="442.61916640400887" r="2" stroke="none" stroke-width="0" fill="#ffa500"></circle><circle cx="639" cy="444.74148297558224" r="2" stroke="none" stroke-width="0" fill="#ffa500"></circle><circle cx="662.909090909091" cy="430.2672324130932" r="2" stroke="none" stroke-width="0" fill="#ffa500"></circle><circle cx="686.8181818181818" cy="395.58868694305414" r="2" stroke="none" stroke-width="0" fill="#ffa500"></circle><circle cx="710.7272727272727" cy="387.23286043107504" r="2" stroke="none" stroke-width="0" fill="#ffa500"></circle><circle cx="734.6363636363637" cy="422.2916702479124" r="2" stroke="none" stroke-width="0" fill="#ffa500"></circle><circle cx="758.5454545454546" cy="483.5826126908263" r="2" stroke="none" stroke-width="0" fill="#ffa500"></circle><circle cx="782.4545454545455" cy="416.4013907363017" r="2" stroke="none" stroke-width="0" fill="#ffa500"></circle><circle cx="806.3636363636364" cy="434.85666278004646" r="2" stroke="none" stroke-width="0" fill="#ffa500"></circle><circle cx="830.2727272727273" cy="427.1374410688877" r="2" stroke="none" stroke-width="0" fill="#ffa500"></circle><circle cx="854.1818181818182" cy="444.70081665118533" r="2" stroke="none" stroke-width="0" fill="#ffa500"></circle><circle cx="878.0909090909091" cy="444.70081665118533" r="2" stroke="none" stroke-width="0" fill="#ffa500"></circle><circle cx="902" cy="347.0692150344451" r="2" stroke="none" stroke-width="0" fill="#ffa500"></circle><circle cx="925.909090909091" cy="381.6759948978821" r="2" stroke="none" stroke-width="0" fill="#ffa500"></circle><circle cx="949.8181818181819" cy="347.5732753723859" r="2" stroke="none" stroke-width="0" fill="#ffa500"></circle><circle cx="973.7272727272727" cy="315.74737119674677" r="2" stroke="none" stroke-width="0" fill="#ffa500"></circle><circle cx="997.6363636363636" cy="356.68020422756666" r="2" stroke="none" stroke-width="0" fill="#ffa500"></circle><circle cx="1021.5454545454546" cy="336.609931046764" r="2" stroke="none" stroke-width="0" fill="#ffa500"></circle><circle cx="256.45454545454544" cy="611.2940437520543" r="2" stroke="none" stroke-width="0" fill="#00ffff"></circle><circle cx="280.3636363636364" cy="592.2601479155322" r="2" stroke="none" stroke-width="0" fill="#00ffff"></circle><circle cx="304.27272727272725" cy="582.6147339977324" r="2" stroke="none" stroke-width="0" fill="#00ffff"></circle><circle cx="328.1818181818182" cy="566.9995592956742" r="2" stroke="none" stroke-width="0" fill="#00ffff"></circle><circle cx="352.0909090909091" cy="550.9694912792183" r="2" stroke="none" stroke-width="0" fill="#00ffff"></circle><circle cx="376" cy="578.8562197908759" r="2" stroke="none" stroke-width="0" fill="#00ffff"></circle><circle cx="399.9090909090909" cy="588.25377313296" r="2" stroke="none" stroke-width="0" fill="#00ffff"></circle><circle cx="423.8181818181818" cy="604.9537871082624" r="2" stroke="none" stroke-width="0" fill="#00ffff"></circle><circle cx="447.72727272727275" cy="626.2445552324256" r="2" stroke="none" stroke-width="0" fill="#00ffff"></circle><circle cx="471.6363636363636" cy="575.0521342319747" r="2" stroke="none" stroke-width="0" fill="#00ffff"></circle><circle cx="495.54545454545456" cy="596.2868270824353" r="2" stroke="none" stroke-width="0" fill="#00ffff"></circle><circle cx="519.4545454545455" cy="594.9917079309622" r="2" stroke="none" stroke-width="0" fill="#00ffff"></circle><circle cx="543.3636363636364" cy="613.9642205759883" r="2" stroke="none" stroke-width="0" fill="#00ffff"></circle><circle cx="567.2727272727273" cy="573.4984315515807" r="2" stroke="none" stroke-width="0" fill="#00ffff"></circle><circle cx="591.1818181818182" cy="594.145481945326" r="2" stroke="none" stroke-width="0" fill="#00ffff"></circle><circle cx="615.0909090909091" cy="601.4367863585552" r="2" stroke="none" stroke-width="0" fill="#00ffff"></circle><circle cx="639" cy="561.2696268645426" r="2" stroke="none" stroke-width="0" fill="#00ffff"></circle><circle cx="662.909090909091" cy="585.0180408656597" r="2" stroke="none" stroke-width="0" fill="#00ffff"></circle><circle cx="686.8181818181818" cy="573.460120216012" r="2" stroke="none" stroke-width="0" fill="#00ffff"></circle><circle cx="710.7272727272727" cy="583.2710676255325" r="2" stroke="none" stroke-width="0" fill="#00ffff"></circle><circle cx="734.6363636363637" cy="616.412289818128" r="2" stroke="none" stroke-width="0" fill="#00ffff"></circle><circle cx="758.5454545454546" cy="606.6064936468998" r="2" stroke="none" stroke-width="0" fill="#00ffff"></circle><circle cx="782.4545454545455" cy="608.2011136586467" r="2" stroke="none" stroke-width="0" fill="#00ffff"></circle><circle cx="806.3636363636364" cy="583.0696257501841" r="2" stroke="none" stroke-width="0" fill="#00ffff"></circle><circle cx="830.2727272727273" cy="589.9386789078513" r="2" stroke="none" stroke-width="0" fill="#00ffff"></circle><circle cx="854.1818181818182" cy="617.2411435643832" r="2" stroke="none" stroke-width="0" fill="#00ffff"></circle><circle cx="878.0909090909091" cy="617.2411435643832" r="2" stroke="none" stroke-width="0" fill="#00ffff"></circle><circle cx="902" cy="619.0390632227063" r="2" stroke="none" stroke-width="0" fill="#00ffff"></circle><circle cx="925.909090909091" cy="584.1406932150325" r="2" stroke="none" stroke-width="0" fill="#00ffff"></circle><circle cx="949.8181818181819" cy="613.7121776168545" r="2" stroke="none" stroke-width="0" fill="#00ffff"></circle><circle cx="973.7272727272727" cy="606.1315501158437" r="2" stroke="none" stroke-width="0" fill="#00ffff"></circle><circle cx="997.6363636363636" cy="612.6084440747896" r="2" stroke="none" stroke-width="0" fill="#00ffff"></circle><circle cx="1021.5454545454546" cy="609.4219603314996" r="2" stroke="none" stroke-width="0" fill="#00ffff"></circle></g><g><g><text text-anchor="end" x="259.25454545454545" y="698.8497422611929" font-family="Arial" font-size="16" transform="rotate(-30 259.25454545454545 698.8497422611929)" stroke="none" stroke-width="0" fill="#222222">1986-06-06</text></g><g><text text-anchor="end" x="307.07272727272726" y="698.8497422611929" font-family="Arial" font-size="16" transform="rotate(-30 307.07272727272726 698.8497422611929)" stroke="none" stroke-width="0" fill="#222222">1988-06-06</text></g><g><text text-anchor="end" x="354.89090909090913" y="698.8497422611929" font-family="Arial" font-size="16" transform="rotate(-30 354.89090909090913 698.8497422611929)" stroke="none" stroke-width="0" fill="#222222">1990-06-06</text></g><g><text text-anchor="end" x="402.7090909090909" y="698.8497422611929" font-family="Arial" font-size="16" transform="rotate(-30 402.7090909090909 698.8497422611929)" stroke="none" stroke-width="0" fill="#222222">1992-06-06</text></g><g><text text-anchor="end" x="450.52727272727276" y="698.8497422611929" font-family="Arial" font-size="16" transform="rotate(-30 450.52727272727276 698.8497422611929)" stroke="none" stroke-width="0" fill="#222222">1994-06-06</text></g><g><text text-anchor="end" x="498.3454545454546" y="698.8497422611929" font-family="Arial" font-size="16" transform="rotate(-30 498.3454545454546 698.8497422611929)" stroke="none" stroke-width="0" fill="#222222">1996-06-06</text></g><g><text text-anchor="end" x="546.1636363636363" y="698.8497422611929" font-family="Arial" font-size="16" transform="rotate(-30 546.1636363636363 698.8497422611929)" stroke="none" stroke-width="0" fill="#222222">1998-06-06</text></g><g><text text-anchor="end" x="593.9818181818182" y="698.8497422611929" font-family="Arial" font-size="16" transform="rotate(-30 593.9818181818182 698.8497422611929)" stroke="none" stroke-width="0" fill="#222222">2000-06-06</text></g><g><text text-anchor="end" x="641.8" y="698.8497422611929" font-family="Arial" font-size="16" transform="rotate(-30 641.8 698.8497422611929)" stroke="none" stroke-width="0" fill="#222222">2002-06-06</text></g><g><text text-anchor="end" x="689.6181818181817" y="698.8497422611929" font-family="Arial" font-size="16" transform="rotate(-30 689.6181818181817 698.8497422611929)" stroke="none" stroke-width="0" fill="#222222">2004-06-06</text></g><g><text text-anchor="end" x="737.4363636363637" y="698.8497422611929" font-family="Arial" font-size="16" transform="rotate(-30 737.4363636363637 698.8497422611929)" stroke="none" stroke-width="0" fill="#222222">2006-06-06</text></g><g><text text-anchor="end" x="785.2545454545455" y="698.8497422611929" font-family="Arial" font-size="16" transform="rotate(-30 785.2545454545455 698.8497422611929)" stroke="none" stroke-width="0" fill="#222222">2008-06-06</text></g><g><text text-anchor="end" x="833.0727272727272" y="698.8497422611929" font-family="Arial" font-size="16" transform="rotate(-30 833.0727272727272 698.8497422611929)" stroke="none" stroke-width="0" fill="#222222">2010-06-06</text></g><g><text text-anchor="end" x="880.8909090909091" y="698.8497422611929" font-family="Arial" font-size="16" transform="rotate(-30 880.8909090909091 698.8497422611929)" stroke="none" stroke-width="0" fill="#222222">2012-06-06</text></g><g><text text-anchor="end" x="928.709090909091" y="698.8497422611929" font-family="Arial" font-size="16" transform="rotate(-30 928.709090909091 698.8497422611929)" stroke="none" stroke-width="0" fill="#222222">2014-06-06</text></g><g><text text-anchor="end" x="976.5272727272727" y="698.8497422611929" font-family="Arial" font-size="16" transform="rotate(-30 976.5272727272727 698.8497422611929)" stroke="none" stroke-width="0" fill="#222222">2016-06-06</text></g><g><text text-anchor="end" x="1024.3454545454547" y="698.8497422611929" font-family="Arial" font-size="16" transform="rotate(-30 1024.3454545454547 698.8497422611929)" stroke="none" stroke-width="0" fill="#222222">2018-06-06</text></g><g><text text-anchor="end" x="228" y="681.1" font-family="Arial" font-size="16" stroke="none" stroke-width="0" fill="#444444">-0.15</text></g><g><text text-anchor="end" x="228" y="552.35" font-family="Arial" font-size="16" stroke="none" stroke-width="0" fill="#444444">0.00</text></g><g><text text-anchor="end" x="228" y="423.6" font-family="Arial" font-size="16" stroke="none" stroke-width="0" fill="#444444">0.15</text></g><g><text text-anchor="end" x="228" y="294.85" font-family="Arial" font-size="16" stroke="none" stroke-width="0" fill="#444444">0.30</text></g><g><text text-anchor="end" x="228" y="166.1" font-family="Arial" font-size="16" stroke="none" stroke-width="0" fill="#444444">0.45</text></g></g></g><g><g><text text-anchor="middle" x="639" y="793.6" font-family="Arial" font-size="16" font-style="italic" stroke="none" stroke-width="0" fill="#222222">Date, annual average</text><rect x="244" y="780" width="790" height="16" stroke="none" stroke-width="0" fill-opacity="0" fill="#ffffff"></rect></g><g><text text-anchor="middle" x="101.6" y="418" font-family="Arial" font-size="16" font-style="italic" transform="rotate(-90 101.6 418)" stroke="none" stroke-width="0" fill="#222222">Reflectance or VI</text><path d="M87.99999999999999,676L88.00000000000001,160L104.00000000000001,160L103.99999999999999,676Z" stroke="none" stroke-width="0" fill-opacity="0" fill="#ffffff"></path></g></g><g></g></svg>